<svg width="168" height="27" viewBox="0 0 168 27" fill="none" xmlns="http://www.w3.org/2000/svg">
<path d="M12.7933 3.85958C13.0931 2.9393 14.3951 2.9393 14.6949 3.85958L16.446 9.23398C16.5801 9.64561 16.9639 9.92418 17.3968 9.92418H23.0576C24.0269 9.92418 24.4293 11.1652 23.6443 11.734L19.0694 15.0486C18.7179 15.3033 18.5709 15.7555 18.7053 16.1682L20.4539 21.5349C20.7539 22.4557 19.7006 23.2227 18.9164 22.6544L14.3308 19.3321C13.9808 19.0784 13.5074 19.0784 13.1574 19.3321L8.57183 22.6544C7.78757 23.2227 6.73428 22.4557 7.0343 21.5348L8.78288 16.1682C8.91733 15.7555 8.77025 15.3033 8.41879 15.0486L3.84392 11.734C3.05891 11.1652 3.46124 9.92418 4.43064 9.92418H10.0914C10.5243 9.92418 10.9081 9.6456 11.0422 9.23398L12.7933 3.85958Z" fill="#070707"/>
<path d="M47.8905 3.85958C48.1903 2.9393 49.4922 2.9393 49.7921 3.85958L51.5432 9.23398C51.6773 9.64561 52.061 9.92418 52.494 9.92418H58.1547C59.1241 9.92418 59.5264 11.1652 58.7414 11.734L54.1666 15.0486C53.8151 15.3033 53.668 15.7555 53.8025 16.1682L55.5511 21.5349C55.8511 22.4557 54.7978 23.2227 54.0135 22.6544L49.428 19.3321C49.0779 19.0784 48.6046 19.0784 48.2545 19.3321L43.669 22.6544C42.8847 23.2227 41.8314 22.4557 42.1315 21.5348L43.88 16.1682C44.0145 15.7555 43.8674 15.3033 43.516 15.0486L38.9411 11.734C38.1561 11.1652 38.5584 9.92418 39.5278 9.92418H45.1886C45.6215 9.92418 46.0052 9.64561 46.1394 9.23398L47.8905 3.85958Z" fill="#070707"/>
<path d="M82.9876 3.85958C83.2875 2.9393 84.5894 2.9393 84.8892 3.85958L86.6403 9.23398C86.7744 9.64561 87.1582 9.92418 87.5911 9.92418H93.2519C94.2213 9.92418 94.6236 11.1652 93.8386 11.734L89.2637 15.0486C88.9123 15.3033 88.7652 15.7555 88.8996 16.1682L90.6482 21.5349C90.9482 22.4557 89.895 23.2227 89.1107 22.6544L84.5251 19.3321C84.1751 19.0784 83.7017 19.0784 83.3517 19.3321L78.7662 22.6544C77.9819 23.2227 76.9286 22.4557 77.2286 21.5348L78.9772 16.1682C79.1117 15.7555 78.9646 15.3033 78.6131 15.0486L74.0383 11.734C73.2532 11.1652 73.6556 9.92418 74.625 9.92418H80.2857C80.7187 9.92418 81.1024 9.64561 81.2365 9.23398L82.9876 3.85958Z" fill="#070707"/>
<path d="M118.085 3.85958C118.385 2.9393 119.687 2.9393 119.986 3.85958L121.737 9.23398C121.872 9.64561 122.255 9.92418 122.688 9.92418H128.349C129.318 9.92418 129.721 11.1652 128.936 11.734L124.361 15.0486C124.009 15.3033 123.862 15.7555 123.997 16.1682L125.745 21.5349C126.045 22.4557 124.992 23.2227 124.208 22.6544L119.622 19.3321C119.272 19.0784 118.799 19.0784 118.449 19.3321L113.863 22.6544C113.079 23.2227 112.026 22.4557 112.326 21.5348L114.074 16.1682C114.209 15.7555 114.062 15.3033 113.71 15.0486L109.135 11.734C108.35 11.1652 108.753 9.92418 109.722 9.92418H115.383C115.816 9.92418 116.2 9.64561 116.334 9.23398L118.085 3.85958Z" fill="#070707"/>
<path d="M153.182 3.85958C153.482 2.9393 154.784 2.9393 155.084 3.85958L156.835 9.23398C156.969 9.64561 157.353 9.92418 157.785 9.92418H163.446C164.416 9.92418 164.818 11.1652 164.033 11.734L159.458 15.0486C159.107 15.3033 158.96 15.7555 159.094 16.1682L160.843 21.5349C161.143 22.4557 160.089 23.2227 159.305 22.6544L154.719 19.3321C154.369 19.0784 153.896 19.0784 153.546 19.3321L148.96 22.6544C148.176 23.2227 147.123 22.4557 147.423 21.5348L149.172 16.1682C149.306 15.7555 149.159 15.3033 148.807 15.0486L144.233 11.734C143.448 11.1652 143.85 9.92418 144.819 9.92418H150.48C150.913 9.92418 151.297 9.64561 151.431 9.23398L153.182 3.85958Z" fill="#E5E5E5"/>
</svg>
